<?xml version="1.0" encoding="UTF-8" standalone="no"?>
<svg
   xmlns:dc="http://purl.org/dc/elements/1.1/"
   xmlns:cc="http://creativecommons.org/ns#"
   xmlns:rdf="http://www.w3.org/1999/02/22-rdf-syntax-ns#"
   xmlns:svg="http://www.w3.org/2000/svg"
   xmlns="http://www.w3.org/2000/svg"
   xmlns:sodipodi="http://sodipodi.sourceforge.net/DTD/sodipodi-0.dtd"
   xmlns:inkscape="http://www.inkscape.org/namespaces/inkscape"
   viewBox="0 0 24 24"
   version="1.1"
   id="svg4"
   sodipodi:docname="logo.svg"
   inkscape:version="1.0.1 (3bc2e813f5, 2020-09-07)">
  <metadata
     id="metadata10">
    <rdf:RDF>
      <cc:Work
         rdf:about="">
        <dc:format>image/svg+xml</dc:format>
        <dc:type
           rdf:resource="http://purl.org/dc/dcmitype/StillImage" />
      </cc:Work>
    </rdf:RDF>
  </metadata>
  <defs
     id="defs8" />
  <sodipodi:namedview
     pagecolor="#ffffff"
     bordercolor="#666666"
     borderopacity="1"
     objecttolerance="10"
     gridtolerance="10"
     guidetolerance="10"
     inkscape:pageopacity="0"
     inkscape:pageshadow="2"
     inkscape:window-width="1128"
     inkscape:window-height="635"
     id="namedview6"
     showgrid="false"
     inkscape:zoom="13.641268"
     inkscape:cx="11.274612"
     inkscape:cy="11.707382"
     inkscape:window-x="0"
     inkscape:window-y="0"
     inkscape:window-maximized="1"
     inkscape:current-layer="svg4"
     inkscape:document-rotation="0" />
  <path
     d="m 9.1394358,23.320158 h 5.6132282 c 3.883991,0 7.032587,-3.187337 7.032587,-7.119116 H 2.1068491 c 0,3.931779 3.1485963,7.119116 7.0325867,7.119116 z"
     id="path2"
     sodipodi:nodetypes="ssccs"
     style="stroke-width:0.96127" />
  <path
     style="stroke-width:0.0144662"
     d="M 4.4210967,15.161334 C 4.3683131,15.146348 4.3094153,15.134087 4.2901931,15.134087 4.1926675,15.13391 3.8699712,14.997619 3.6741076,14.873838 3.4621201,14.739877 3.3665554,14.65912 3.2767915,14.538095 3.2443267,14.494285 3.1989829,14.436667 3.176088,14.410019 3.0222367,14.231104 2.856448,13.895806 2.8332715,13.7167 c -0.00552,-0.04289 -0.019403,-0.09945 -0.030598,-0.125739 -0.017392,-0.04045 -0.020512,-0.716288 -0.020512,-4.3866188 5.9e-6,-4.3041403 2.286e-4,-4.3394199 0.029527,-4.4133832 0.016274,-0.041014 0.029528,-0.095622 0.029528,-0.1213525 0,-0.02573 0.013386,-0.073188 0.029528,-0.1054689 0.016274,-0.03228 0.029528,-0.068757 0.029528,-0.081087 0,-0.026115 0.052566,-0.1291444 0.1373711,-0.2692617 0.032933,-0.054437 0.068444,-0.1150168 0.078881,-0.1346461 C 3.1457976,4.0241288 3.2979128,3.8417922 3.3801366,3.7631457 3.4559346,3.6906417 3.6206305,3.5680053 3.7123567,3.515761 3.8810823,3.419647 4.1648514,3.2989793 4.2882016,3.2708748 c 0.028407,-0.00641 0.098188,-0.023462 0.1550335,-0.037696 0.096539,-0.02421 0.2203065,-0.026415 1.8751897,-0.033179 0.9745118,-0.00408 1.7726578,-0.00878 1.7736654,-0.0107 0.02234,-0.04125 0.1484103,-0.2933349 0.1646665,-0.3293576 0.012266,-0.027272 0.028096,-0.059166 0.035041,-0.070854 0.00687,-0.011774 0.019176,-0.037206 0.027385,-0.056704 0.00806,-0.019479 0.021403,-0.044995 0.029612,-0.056684 0.00831,-0.011771 0.018514,-0.030825 0.022918,-0.042514 C 8.383147,2.6033455 8.437701,2.48865 8.4527936,2.4631124 8.459663,2.4513334 8.5316752,2.3142907 8.6127343,2.1583844 8.7350951,1.9230408 8.7822159,1.848322 8.8903146,1.7182957 9.0188104,1.5637421 9.1074764,1.4713609 9.1280735,1.4705752 c 0.00578,-2.203e-4 0.040457,-0.026353 0.077003,-0.058033 0.083514,-0.072461 0.1840234,-0.1367009 0.3322195,-0.2123509 0.03247,-0.016483 0.06902,-0.038233 0.08122,-0.048122 0.01227,-0.00984 0.07198,-0.038254 0.132888,-0.063042 0.06091,-0.024809 0.130681,-0.053537 0.155034,-0.063834 0.07172,-0.030375 0.15597,-0.054051 0.258391,-0.072654 0.05279,-0.00964 0.1458,-0.028107 0.206704,-0.041207 0.100726,-0.02162 0.244178,-0.023205 1.587266,-0.017553 l 1.476527,0.00621 0.172716,0.036369 c 0.165804,0.034914 0.436165,0.121481 0.553824,0.1773087 0.116703,0.055379 0.310425,0.1692811 0.345978,0.2034028 0.01384,0.013271 0.06144,0.046367 0.105999,0.073723 0.170464,0.1046762 0.347548,0.2954052 0.492857,0.5308725 0.04417,0.071584 0.270261,0.5090447 0.270353,0.5231086 9.1e-5,0.01263 0.07326,0.152306 0.169306,0.3231049 0.133533,0.237467 0.182729,0.3334334 0.192252,0.3750667 0.0053,0.023655 0.01095,0.044569 0.01249,0.046408 0.0013,0.00171 0.799844,0.00705 1.774354,0.011773 1.718187,0.00813 1.775628,0.0092 1.897337,0.037353 0.240335,0.055506 0.424645,0.1234505 0.661887,0.243981 0.07422,0.037717 0.269578,0.1744829 0.350035,0.2450617 0.07577,0.066465 0.227008,0.2350991 0.296755,0.3308731 0.04365,0.059939 0.186989,0.3385906 0.218366,0.4244897 0.01426,0.038981 0.03069,0.096607 0.03655,0.128074 0.0057,0.031488 0.01672,0.066552 0.02427,0.07794 0.05075,0.077299 0.05307,0.2446978 0.06114,4.4427931 0.0084,4.3176309 0.0073,4.3964339 -0.05478,4.5779579 -0.01605,0.04678 -0.02916,0.09781 -0.02922,0.113385 0,0.01562 -0.0094,0.04546 -0.02075,0.06635 -0.0113,0.02098 -0.02508,0.05726 -0.03042,0.0808 -0.01984,0.08712 -0.16935,0.341855 -0.284388,0.484868 -0.173387,0.215536 -0.401411,0.408378 -0.570109,0.48216 -0.02162,0.0095 -0.03918,0.022 -0.03918,0.0279 0,0.0059 -0.01941,0.01499 -0.04327,0.01992 -0.02379,0.0049 -0.0512,0.0182 -0.06087,0.02948 -0.0096,0.01109 -0.0271,0.02035 -0.03867,0.02035 -0.01155,0 -0.04148,0.01005 -0.06641,0.0225 -0.05584,0.02771 -0.147251,0.05234 -0.364473,0.09808 l -0.167632,0.03532 -7.392183,-0.0011 c -7.244145,-0.0011 -7.3941024,-0.0016 -7.488154,-0.02833 z m 7.9511013,-1.852501 c 0.163419,-0.0089 0.253163,-0.02012 0.291139,-0.03638 0.03019,-0.01285 0.08999,-0.02373 0.132891,-0.02401 0.04289,-2.62e-4 0.09459,-0.0096 0.114894,-0.02077 0.02029,-0.01108 0.06204,-0.02054 0.09274,-0.02077 0.03071,-2.67e-4 0.08055,-0.01051 0.110741,-0.02271 0.03019,-0.01219 0.08149,-0.02766 0.113958,-0.03437 0.07185,-0.01477 0.192674,-0.05424 0.245903,-0.08021 0.02162,-0.01051 0.04978,-0.01906 0.06272,-0.01906 0.01295,0 0.128184,-0.04923 0.256113,-0.109387 0.206882,-0.0973 0.322038,-0.158792 0.543483,-0.290238 0.05903,-0.03504 0.262069,-0.180605 0.318058,-0.228024 0.194883,-0.165066 0.289032,-0.249673 0.375087,-0.33708 0.05684,-0.05774 0.148454,-0.148817 0.203558,-0.202418 0.05511,-0.0536 0.113126,-0.121758 0.12892,-0.151472 0.01582,-0.02974 0.05213,-0.07843 0.08071,-0.108253 0.02858,-0.02982 0.0562,-0.06699 0.06135,-0.08257 0.0052,-0.01561 0.0254,-0.04673 0.04495,-0.06922 0.01962,-0.02249 0.04877,-0.06395 0.06486,-0.09214 0.01606,-0.02818 0.04444,-0.07677 0.06296,-0.107954 0.227505,-0.38292 0.412492,-0.828947 0.452624,-1.091337 0.0071,-0.04678 0.02249,-0.107378 0.03411,-0.134646 0.01155,-0.02728 0.0255,-0.102622 0.03085,-0.167398 0.0053,-0.06476 0.01962,-0.153824 0.03146,-0.197858 0.03147,-0.116043 0.03122,-0.8192734 -3.58e-4,-0.9187186 -0.01227,-0.038274 -0.02629,-0.1237927 -0.03147,-0.1900454 -0.0052,-0.066253 -0.01762,-0.1402327 -0.02788,-0.1643789 -0.01021,-0.024148 -0.02344,-0.078218 -0.02943,-0.1201966 -0.0061,-0.041956 -0.02005,-0.1011454 -0.03121,-0.131499 -0.0112,-0.030375 -0.02051,-0.068758 -0.02075,-0.085325 -2.74e-4,-0.016483 -0.01339,-0.055612 -0.02902,-0.086802 -0.01562,-0.031167 -0.02875,-0.062956 -0.02904,-0.070599 -0.0021,-0.061376 -0.284805,-0.6375724 -0.40679,-0.8294371 -0.03717,-0.05846 -0.09219,-0.139184 -0.122251,-0.1793636 -0.03006,-0.04018 -0.086,-0.1167287 -0.124304,-0.1700733 -0.111333,-0.1550889 -0.567205,-0.5897315 -0.81423,-0.7763368 -0.04172,-0.031511 -0.08457,-0.065332 -0.09528,-0.075136 -0.01071,-0.00984 -0.06383,-0.043797 -0.118122,-0.075521 -0.05428,-0.031725 -0.138552,-0.082351 -0.187277,-0.1124685 -0.09409,-0.058161 -0.192432,-0.1069886 -0.383898,-0.1905807 -0.06498,-0.028385 -0.135766,-0.060881 -0.157307,-0.072267 -0.02162,-0.011347 -0.05477,-0.020763 -0.07382,-0.020763 -0.01896,-4.48e-5 -0.05455,-0.012844 -0.07892,-0.028234 -0.02437,-0.015412 -0.0557,-0.028214 -0.06965,-0.028258 -0.01384,-4.51e-5 -0.04713,-0.0092 -0.07381,-0.020335 -0.06691,-0.027871 -0.18061,-0.063535 -0.277348,-0.086996 -0.04467,-0.010919 -0.12107,-0.029347 -0.169797,-0.041143 -0.162481,-0.039366 -0.440497,-0.07642 -0.674821,-0.089928 -0.304658,-0.017553 -0.785998,0.003 -0.953593,0.040651 -0.0673,0.015199 -0.140603,0.027528 -0.162882,0.027528 -0.0223,0 -0.07686,0.00984 -0.12127,0.021835 -0.0444,0.011988 -0.107312,0.028064 -0.139802,0.035641 -0.03247,0.00749 -0.08231,0.02239 -0.110741,0.032901 -0.0284,0.010492 -0.101511,0.033416 -0.162415,0.050883 -0.0609,0.017552 -0.135321,0.04386 -0.165336,0.058632 -0.03005,0.014769 -0.06407,0.026866 -0.07564,0.026866 -0.01156,0 -0.05343,0.013271 -0.09304,0.02969 -0.13503,0.055699 -0.204874,0.085711 -0.231595,0.099496 -0.01473,0.00749 -0.06452,0.032966 -0.110742,0.056405 -0.04624,0.023419 -0.103989,0.054865 -0.128341,0.069849 -0.02438,0.014984 -0.07491,0.043005 -0.112331,0.062271 -0.03742,0.019266 -0.08726,0.050434 -0.110743,0.069249 -0.02351,0.018835 -0.065337,0.045382 -0.093011,0.058995 -0.027674,0.013702 -0.080817,0.051826 -0.1181212,0.084876 -0.037314,0.033073 -0.078904,0.065867 -0.092434,0.072888 C 9.1866818,6.0309045 8.9101905,6.275001 8.7618561,6.4172031 8.7007791,6.4757721 8.6121084,6.5734264 8.564854,6.6342118 8.517596,6.6950058 8.4627666,6.7614937 8.4429824,6.7819583 c -0.019849,0.02055 -0.055974,0.069592 -0.080457,0.1091721 -0.02446,0.039559 -0.066433,0.1007167 -0.093241,0.1358874 -0.057032,0.07488 -0.2896636,0.4794695 -0.2896636,0.5037915 0,0.0092 -0.013386,0.032836 -0.029527,0.052661 -0.016274,0.019909 -0.029529,0.051355 -0.029529,0.070063 0,0.018624 -0.00987,0.046407 -0.021631,0.061542 -0.011795,0.015199 -0.022076,0.040265 -0.02263,0.05585 -3.575e-4,0.015627 -0.013832,0.053857 -0.029503,0.085048 -0.015611,0.031167 -0.028769,0.072632 -0.029142,0.092133 -3.237e-4,0.01948 -0.010472,0.053707 -0.02263,0.076033 -0.012037,0.022327 -0.022076,0.062442 -0.022076,0.089137 0,0.026693 -0.013386,0.073551 -0.029527,0.1041204 -0.016503,0.031209 -0.029528,0.083529 -0.029528,0.1193832 0,0.035105 -0.013386,0.09618 -0.029528,0.1357376 -0.020512,0.050111 -0.029529,0.1053405 -0.029529,0.1822106 0,0.063727 -0.010473,0.1427801 -0.024929,0.1872624 -0.035389,0.1091723 -0.03521,0.6295539 2.757e-4,0.7643805 0.013386,0.05066 0.024327,0.13852 0.02446,0.195247 1.408e-4,0.0663 0.010713,0.131905 0.029744,0.183752 0.016274,0.04435 0.029528,0.108208 0.029528,0.141881 0,0.0337 0.010473,0.0766 0.023329,0.09538 0.012711,0.01884 0.028698,0.068 0.035305,0.109339 0.00675,0.04136 0.01873,0.09434 0.027048,0.117716 0.00831,0.02339 0.030441,0.09035 0.049196,0.148815 0.01873,0.05846 0.042635,0.118872 0.053013,0.134261 0.010231,0.01541 0.018958,0.03962 0.018958,0.05388 0,0.01435 0.012482,0.04951 0.027939,0.07835 0.1851843,0.347213 0.2221578,0.413816 0.2849402,0.513047 0.068865,0.108868 0.1483213,0.216803 0.2153338,0.292576 0.026579,0.03009 0.079349,0.09611 0.1172065,0.146784 0.1181693,0.158085 0.5379832,0.547351 0.7153659,0.663314 0.03787,0.02477 0.071092,0.04997 0.073812,0.05607 0.00675,0.01455 0.1981621,0.146011 0.2553651,0.175125 0.02469,0.01263 0.09476,0.05008 0.155657,0.08334 0.173142,0.09458 0.456304,0.227044 0.546316,0.255585 0.0203,0.0065 0.09332,0.03131 0.162303,0.05527 0.06895,0.02396 0.138731,0.04361 0.155034,0.04363 0.01627,4.1e-5 0.04862,0.0096 0.07181,0.02118 0.02318,0.01155 0.08095,0.02709 0.128385,0.03445 0.04744,0.0073 0.09946,0.02012 0.115605,0.02842 0.01605,0.0083 0.06801,0.01519 0.115221,0.01519 0.05231,4.7e-5 0.103182,0.0092 0.130168,0.02367 0.03366,0.01799 0.09982,0.02557 0.275637,0.03178 0.127248,0.0046 0.236643,0.01328 0.243119,0.01949 0.01249,0.01199 0.271703,0.0059 0.662466,-0.01519 z m -0.819472,-1.414934 c -0.02841,-0.01199 -0.09819,-0.02533 -0.155035,-0.02977 -0.05684,-0.0046 -0.119976,-0.01584 -0.140269,-0.02551 -0.02029,-0.0096 -0.0635,-0.02188 -0.09598,-0.02739 -0.09127,-0.0154 -0.195332,-0.05019 -0.328223,-0.109585 -0.06683,-0.02985 -0.132757,-0.0543 -0.146493,-0.0543 -0.01383,0 -0.03666,-0.01006 -0.05095,-0.02258 -0.02529,-0.022 -0.04537,-0.03359 -0.178092,-0.103053 C 10.309656,11.444261 10.007048,11.19972 9.825832,11.011095 9.700703,10.880838 9.567712,10.70673 9.489098,10.570226 9.464409,10.527346 9.420305,10.451806 9.391091,10.402336 9.361877,10.352876 9.337923,10.305026 9.337862,10.296033 c -4.69e-5,-0.009 -0.013386,-0.03549 -0.029419,-0.05887 -0.016058,-0.02339 -0.02942,-0.05528 -0.029529,-0.07088 -9.4e-5,-0.01562 -0.013386,-0.04748 -0.029528,-0.07088 C 9.233329,10.072013 9.219991,10.035313 9.219967,10.013853 9.2199199,9.992403 9.206581,9.951023 9.190332,9.921933 9.171818,9.888693 9.160804,9.841953 9.160804,9.796149 c 0,-0.04009 -0.010472,-0.09714 -0.02346,-0.126789 -0.034583,-0.07945 -0.034475,-0.8120531 1.408e-4,-0.8915349 0.012938,-0.029477 0.023353,-0.086311 0.023436,-0.1262973 4.46e-5,-0.04868 0.00987,-0.086718 0.029419,-0.1152094 0.016058,-0.023397 0.029419,-0.061651 0.029528,-0.08505 9.39e-5,-0.023397 0.013386,-0.061651 0.029529,-0.085049 0.016058,-0.023397 0.029395,-0.054008 0.02942,-0.06805 4.69e-5,-0.014127 0.012939,-0.049128 0.028817,-0.077962 0.015828,-0.028834 0.049798,-0.093866 0.075582,-0.1445356 0.025761,-0.050668 0.055214,-0.1017009 0.065433,-0.1133895 0.010232,-0.011772 0.0465,-0.0691 0.080685,-0.1275602 0.03416,-0.058459 0.09313,-0.1488164 0.1310372,-0.2007911 0.07925,-0.1086579 0.421298,-0.4460285 0.510691,-0.5037165 0.03311,-0.021406 0.09795,-0.066146 0.144017,-0.099475 0.04606,-0.03335 0.08661,-0.0606 0.09007,-0.0606 0.0036,0 0.06691,-0.035087 0.140983,-0.077939 0.07407,-0.042878 0.138866,-0.077963 0.14395,-0.077963 0.0089,0 0.05388,-0.01841 0.176486,-0.072461 0.03268,-0.014343 0.08252,-0.030524 0.110743,-0.035833 0.02822,-0.00535 0.06461,-0.017553 0.08087,-0.027102 0.01627,-0.00965 0.06275,-0.021941 0.10336,-0.027379 0.0406,-0.00557 0.08208,-0.016483 0.09215,-0.024426 0.01004,-0.00791 0.06323,-0.019694 0.118121,-0.026008 0.05487,-0.00641 0.146313,-0.021429 0.203158,-0.033543 0.161144,-0.034379 0.588289,-0.030997 0.738267,0.00578 0.06352,0.015627 0.136211,0.028343 0.161589,0.028343 0.02538,0 0.08393,0.012844 0.130146,0.028343 0.04622,0.015627 0.102652,0.028342 0.125396,0.028342 0.02275,0 0.05448,0.00879 0.07052,0.01948 0.01606,0.0107 0.05115,0.02404 0.0781,0.02969 0.02694,0.00557 0.06681,0.01905 0.0886,0.030076 0.02186,0.010918 0.04719,0.019909 0.05645,0.019909 0.0094,4.25e-5 0.06389,0.022412 0.121404,0.049706 0.05751,0.027272 0.110585,0.049597 0.117928,0.049597 0.0073,0 0.02162,0.00943 0.03152,0.020978 0.01004,0.01156 0.0357,0.029477 0.05718,0.039923 0.272535,0.1322269 0.646106,0.4635348 0.921275,0.8170473 0.03047,0.039131 0.05538,0.078733 0.05538,0.088001 0,0.0092 0.0088,0.026929 0.01984,0.039237 0.02186,0.024425 0.06128,0.096307 0.113559,0.2066353 0.01851,0.038981 0.03849,0.080894 0.04448,0.093138 0.01739,0.035365 0.10363,0.2564009 0.132441,0.3391556 0.02899,0.083228 0.06223,0.2454642 0.08283,0.4039351 0.03355,0.2581754 0.01071,0.7354362 -0.04223,0.8858282 -0.01248,0.03508 -0.02917,0.09566 -0.03729,0.134645 -0.0084,0.03898 -0.02323,0.09318 -0.03347,0.120475 -0.01021,0.02728 -0.02822,0.07512 -0.03988,0.106306 -0.08756,0.233706 -0.304013,0.610729 -0.419531,0.730766 -0.01919,0.01992 -0.06019,0.06611 -0.09107,0.102534 -0.03089,0.03643 -0.123567,0.122167 -0.205966,0.190497 -0.08239,0.06833 -0.17031,0.143379 -0.195399,0.166754 -0.02508,0.02339 -0.09187,0.07062 -0.14841,0.104975 -0.05652,0.03434 -0.129363,0.07881 -0.161856,0.09882 -0.08286,0.05102 -0.3351,0.170843 -0.361751,0.17185 -0.01226,3.44e-4 -0.03505,0.01029 -0.0508,0.02167 -0.01582,0.01132 -0.04275,0.02077 -0.05994,0.02077 -0.01719,0 -0.04417,0.0095 -0.05994,0.02077 -0.01582,0.01132 -0.04859,0.02118 -0.07295,0.02157 -0.02437,3.44e-4 -0.07326,0.01329 -0.108673,0.02879 -0.03547,0.0154 -0.09615,0.02805 -0.135251,0.02805 -0.039,0 -0.11302,0.01263 -0.164491,0.02817 -0.08144,0.0245 -0.134827,0.02813 -0.411054,0.02782 -0.251905,-3.12e-4 -0.328119,-0.0049 -0.369127,-0.02206 z M 5.4880615,6.3005187 c 0.021631,-0.013701 0.052098,-0.024768 0.067638,-0.024768 0.015611,0 0.036846,-0.00984 0.047318,-0.022072 0.010472,-0.012202 0.041397,-0.031038 0.068637,-0.041956 0.090206,-0.036175 0.2597183,-0.2278413 0.3194326,-0.3611663 0.012266,-0.027271 0.03374,-0.1060686 0.047787,-0.1750609 C 6.0632728,5.5556637 6.0632489,5.5436121 6.0374309,5.406207 5.9999816,5.2053733 5.9460189,5.1069449 5.7953838,4.9647276 5.6507434,4.8281554 5.5414479,4.7695877 5.3705252,4.737031 5.2025134,4.7050278 4.9104423,4.7282481 4.8509327,4.7782376 c -0.013156,0.011127 -0.04059,0.024938 -0.060885,0.030804 -0.076376,0.022048 -0.2629025,0.1819109 -0.3221967,0.2761609 -0.09785,0.1555169 -0.1122349,0.2144894 -0.1107063,0.4535444 0.00145,0.1993356 0.0047,0.226907 0.036979,0.2976358 0.062846,0.1378137 0.1005956,0.1984365 0.1571061,0.2521642 0.065338,0.062144 0.220463,0.1656851 0.2701995,0.1803484 0.019176,0.00578 0.04266,0.016055 0.051941,0.023249 0.035124,0.026865 0.1526029,0.038574 0.3603233,0.035921 0.1762635,-0.00236 0.2218448,-0.00728 0.2541827,-0.027528 z"
     id="path1550" />
</svg>
